<svg version="1.0" xmlns="http://www.w3.org/2000/svg" width="640px" height="640px" viewBox="0 0 640 640" preserveAspectRatio="xMidYMid meet">
     <defs>
          <g id="icon-shape" fill="#6c757d" fill-rule="evenodd">
               <path d="M561.09 578.80 C539.03 557.20 410.10 428.43 274.49 292.50 C85.44 103.15 27.65 44.43 27.03 41.01 C25.79 33.86 31.84 27.18 39.46 27.50 C44.89 27.65 47.38 29.51 71.30 53.44 L97.24 79.07 292.82 79.22 C451.11 79.22 489.94 79.53 496.31 81.24 C521.94 88.08 540.12 109.20 543.69 136.23 C544.78 144 545.09 200.70 544.78 294.37 L544.47 440.39 540.89 449.55 C536.39 461.67 526.29 474.41 515.42 481.71 L506.72 487.77 532.97 514.17 C547.42 528.62 560.31 540.58 561.55 540.58 C566.06 540.58 575.53 535.61 580.66 530.64 C589.20 522.56 592.31 514.95 592.47 501.90 L592.62 490.56 580.97 484.50 C574.76 481.24 568.08 477.20 566.37 475.50 C563.73 472.70 563.57 471.92 565.44 467.42 C567.30 462.76 577.24 454.99 581.28 455.15 C582.37 455.15 585.01 456.54 587.18 458.25 C589.20 459.81 591.53 461.20 592.16 461.20 C592.78 461.20 593.24 404.19 592.93 334.29 C592.62 215.15 592.31 206.91 589.67 201.63 C585.48 193.09 576.62 185.17 567.92 181.90 C561.24 179.42 559.84 178.17 558.60 173.67 C557.05 167.15 559.69 157.51 563.73 155.34 C566.06 154.10 568.85 154.56 575.22 156.89 C599.46 165.90 614.83 185.32 618.25 210.80 C619.34 218.56 619.65 275.42 619.34 368.93 L619.03 514.95 615.46 524.12 C611.11 535.61 601.01 548.82 591.38 555.34 C587.34 558.14 583.15 560.78 582.06 561.09 C580.97 561.55 587.81 569.63 598.99 581.13 C609.24 591.69 618.25 601.79 618.87 603.81 C620.12 607.69 616.39 615.77 612.82 617.17 C611.42 617.79 608.31 618.25 605.83 618.25 C601.79 618.25 595.42 612.66 561.09 578.80 M423.15 404.97 C389.44 371.42 362.10 343.30 362.41 342.52 C362.72 341.59 365.05 340.66 367.84 340.35 C372.66 339.88 379.65 343.46 498.33 405.75 L519.15 416.62 518.37 427.65 C517.59 440.23 514.02 448.62 506.10 456.08 C500.97 461.05 491.34 466.02 486.99 466.02 C485.59 466.02 457.01 438.52 423.15 404.97 M467.11 360.23 C399.22 324.35 381.05 315.50 372.04 313.79 C363.18 312.23 352.31 313.79 343.77 317.83 L338.33 320.47 231.30 213.44 C172.43 154.56 124.27 105.79 124.12 105.17 C124.12 104.54 206.14 104.08 306.33 104.39 C487.46 104.70 488.54 104.85 495.53 107.96 C503.61 111.84 511.22 119.15 515.26 127.07 C517.75 132.35 518.06 139.96 518.37 230.99 C518.52 285.05 518.37 342.21 518.06 358.06 L517.28 386.80 467.11 360.23 M398.45 257.24 C382.76 251.03 374.21 243.11 367.69 228.66 C362.56 217.48 362.87 197.90 368.31 186.10 C373.28 175.38 381.98 166.37 392.23 161.40 C398.76 158.14 402.17 157.67 414.76 157.67 C433.40 157.67 442.41 161.24 453.44 173.36 C462.60 183.30 466.49 193.86 466.49 208.16 C466.49 213.59 465.24 221.83 463.84 226.33 C460.12 237.20 448.31 250.10 438.06 254.45 C427.96 258.80 406.06 260.19 398.45 257.24 M406.83 233.17 C395.65 229.90 388.97 218.25 390.21 204.74 C391.46 190.91 400.31 182.83 414.29 182.68 C430.60 182.37 440.23 191.84 440.23 208 C440.23 218.41 436.35 226.17 429.05 230.21 C422.68 233.63 413.05 234.87 406.83 233.17 " />
               <path d="M472.23 566.99 L465.24 566.99C461.36 566.99 457.79 566.99 457.48 566.99 C457.01 566.99 391.30 566.99 311.46 566.99 L166.21 566.99L166.21 566.99 L161.86 566.83C159.53 566.83 154.10 565.90 149.90 564.82 C145.55 563.73 139.03 561.09 135.30 559.22 C131.42 557.36 125.05 552.39 120.85 548.04 C116.35 543.69 111.07 536.23 108.43 530.33 C104.23 521.32 103.92 519.77 105.63 515.57 C106.56 513.09 109.05 510.60 110.91 510.14 C112.78 509.67 117.44 509.51 121.17 509.67 C127.38 510.14 128.16 510.60 129.40 515.42 C130.33 518.21 133.90 523.96 137.63 528 C141.36 532.19 147.42 536.85 150.99 538.41 C157.20 541.20 166.06 541.36 322.80 542.14 L487.92 542.91 490.87 546.49 C492.58 548.50 493.98 552.23 493.98 554.72 C493.98 557.51 492.43 560.78 490.10 563.11 C487.15 566.06 484.66 566.99 479.22 566.99 L472.23 566.99" />
               <path d="M397.67 492.43 L390.68 492.43C386.80 492.43 383.22 492.43 382.91 492.43 C382.45 492.43 316.74 492.43 236.89 492.43 L91.65 492.43L91.65 492.43 L82.64 491.50C77.51 491.03 69.44 488.70 64 486.21 C58.41 483.57 50.95 478.29 46.45 473.79 C41.79 469.13 36.66 461.67 33.71 455.61 C30.14 448 28.43 441.32 27.34 430.76 C25.94 418.49 26.10 415.53 28.27 411.03 C29.51 408.23 52.19 382.14 78.45 353.24 C104.70 324.19 130.80 295.77 136.39 289.86 C142.29 283.81 149.75 277.75 153.79 276.04 C158.14 274.02 163.73 272.93 169.48 272.93 C174.60 272.93 180.97 274.17 185.01 276.04 C189.83 278.21 197.59 285.20 212.04 300.58 C223.07 312.54 235.96 326.37 240.78 331.50 C245.44 336.62 253.83 345.63 259.42 351.38 L269.51 361.79 276.97 357.13 C281.17 354.49 286.76 352 289.40 351.53 C292.82 350.91 295.46 351.69 298.41 353.86 C300.58 355.73 302.76 358.99 303.22 361.48 C303.69 363.81 303.22 367.53 302.14 369.55 C300.89 371.73 297.17 375.15 293.59 377.17 C290.17 379.03 287.38 381.05 287.38 381.51 C287.38 382.14 294.06 389.75 302.45 398.76 C310.83 407.61 319.22 417.09 321.09 419.73 C322.95 422.52 324.66 426.72 324.66 429.05 C324.66 431.69 322.95 434.95 320.78 437.28 C318.60 439.30 315.18 441.17 312.85 441.17 C310.68 441.17 307.57 440.39 306.02 439.61 C304.47 438.83 274.80 406.99 240 368.93 C205.05 330.87 175.22 299.34 173.67 298.87 C172.12 298.41 168.70 298.41 166.37 298.87 C163.11 299.65 149.28 313.79 113.09 353.71 C86.21 383.38 61.67 410.56 58.41 414.14 C53.90 419.11 52.82 421.75 52.82 426.56 C52.82 429.98 53.75 436.19 54.99 440.39 C56.54 445.51 59.50 450.17 64 454.68 C67.57 458.25 73.48 462.45 76.89 464 C82.64 466.49 93.51 466.80 248.23 467.57 L413.36 468.35 416.31 471.92 C418.02 473.94 419.42 477.67 419.42 480.16 C419.42 482.95 417.86 486.21 415.53 488.54 C412.58 491.50 410.10 492.43 404.66 492.43 L397.67 492.43" />
               <path d="M34.17 348.74 C31.07 347.18 29.05 344.70 27.96 340.66 C26.72 336.47 26.25 305.09 26.72 233.01 C27.18 141.51 27.50 130.33 29.83 123.18 C34.02 110.91 37.75 107.03 45.67 107.18 C56.54 107.18 60.74 114.64 56.23 125.83 C53.75 132.04 53.44 142.29 52.82 237.98 L52.04 343.15 48.47 346.25 C43.65 350.60 39.61 351.38 34.17 348.74 " />
          </g>
     </defs>
     <use href="#icon-shape" fill="#777" stroke="none" />
     <use href="#icon-shape"
          fill="none"
          stroke="#eee"
          stroke-width="2"
          stroke-linejoin="round"
          stroke-linecap="round" />
</svg>